PathFileType  4	(X/Y/Z) C:\Users\wagnerel85475\Documents\Thesis\opencap-core\Data\3375ffbc-daeb-4a43-b4f7-ac9899cd4c71\MarkerData\PreAugmentation
DataRate	CameraRate	NumFrames	NumMarkers	Units	OrigDataRate	OrigDataStartFrame	OrigNumFrames
60.0	60.0	12	20	m	60.0	449	897
Frame#	Time	Neck			RShoulder			RElbow			RWrist			LShoulder			LElbow			LWrist			midHip			RHip			RKnee			RAnkle			LHip			LKnee			LAnkle			LBigToe			LSmallToe			LHeel			RBigToe			RSmallToe			RHeel			
		X1	Y1	Z1	X2	Y2	Z2	X3	Y3	Z3	X4	Y4	Z4	X5	Y5	Z5	X6	Y6	Z6	X7	Y7	Z7	X8	Y8	Z8	X9	Y9	Z9	X10	Y10	Z10	X11	Y11	Z11	X12	Y12	Z12	X13	Y13	Z13	X14	Y14	Z14	X15	Y15	Z15	X16	Y16	Z16	X17	Y17	Z17	X18	Y18	Z18	X19	Y19	Z19	X20	Y20	Z20	

449	7.4666667	0.9048200	0.6144400	-0.0792600	0.9108300	0.6184400	0.0819400	1.0510200	0.4350400	0.1318000	1.4362200	0.4776400	0.0201000	0.9116800	0.6130800	-0.2479900	1.1420700	0.4305900	-0.2686200	1.4310300	0.4600600	-0.1447600	0.4034900	0.2379000	-0.0972100	0.4065800	0.2372800	0.0226000	0.8927500	0.2464100	0.1568700	0.5959900	-0.2058900	0.1058800	0.4136300	0.2526000	-0.2146300	0.8622900	0.2594700	-0.3281000	0.6202900	-0.1944100	-0.2898300	0.8218400	-0.2303300	-0.3519100	0.7782700	-0.2394600	-0.3765300	0.5429100	-0.2421700	-0.2842100	0.7619800	-0.2371300	0.2096700	0.7331400	-0.2334500	0.2203900	0.5867500	-0.2251600	0.0684700
450	7.4833333	0.9002200	0.5974300	-0.0809000	0.9053300	0.6018800	0.0800100	1.0693200	0.4267900	0.1389200	1.4522900	0.4649700	0.0158300	0.9137200	0.6018600	-0.2468000	1.1580400	0.4090900	-0.2647400	1.4439600	0.4363200	-0.1435200	0.4006100	0.2268000	-0.1007600	0.4057700	0.2236700	0.0108200	0.8915500	0.2402700	0.1514900	0.6010000	-0.2026800	0.1029800	0.4103700	0.2440700	-0.2197200	0.8768600	0.2721100	-0.3355800	0.6202300	-0.1944400	-0.2897600	0.8256500	-0.2306800	-0.3494400	0.7785500	-0.2373900	-0.3765400	0.5384700	-0.2453900	-0.2819200	0.7661200	-0.2357500	0.2071700	0.7426300	-0.2303800	0.2191500	0.5864900	-0.2254300	0.0683500
451	7.5000000	0.9004600	0.5817800	-0.0816100	0.9123400	0.5871800	0.0814100	1.1076000	0.4068800	0.1544900	1.4529000	0.4441300	0.0276900	0.9111400	0.5801700	-0.2483800	1.1807600	0.3837800	-0.2666400	1.4519700	0.4189300	-0.1443800	0.3985500	0.2094800	-0.1104300	0.4123400	0.2099500	0.0074400	0.9014000	0.2486300	0.1513600	0.5947700	-0.2042300	0.1011800	0.4277000	0.2316700	-0.2315600	0.8865900	0.2776100	-0.3393000	0.6204300	-0.1944800	-0.2897900	0.8168200	-0.2336600	-0.3537300	0.7731200	-0.2369100	-0.3780800	0.5485000	-0.2441500	-0.2781900	0.7666100	-0.2330000	0.2074300	0.7432000	-0.2276700	0.2197500	0.5863300	-0.2248800	0.0682600
452	7.5166667	0.9009600	0.5712900	-0.0814100	0.9072800	0.5721300	0.0838500	1.1302500	0.3927800	0.1619400	1.4324600	0.4271700	0.0457800	0.9126600	0.5669000	-0.2473200	1.1904200	0.3661900	-0.2721100	1.4670500	0.4100200	-0.1409000	0.4070100	0.1973300	-0.1181000	0.4101500	0.1980900	0.0024600	0.9018500	0.2528500	0.1552200	0.5997500	-0.1975200	0.1019300	0.4288200	0.2150800	-0.2365800	0.8905200	0.2767600	-0.3403100	0.6203400	-0.1945300	-0.2896900	0.8161000	-0.2339700	-0.3538300	0.7737100	-0.2390300	-0.3787800	0.5495900	-0.2435700	-0.2777600	0.7753600	-0.2299000	0.2023800	0.7426000	-0.2282300	0.2195100	0.5846600	-0.2258800	0.0675300
453	7.5333333	0.8911900	0.5543400	-0.0807700	0.9018900	0.5588500	0.0824300	1.1341800	0.3865600	0.1601300	1.4323100	0.4159200	0.0473700	0.9121500	0.5571200	-0.2479800	1.1895800	0.3640000	-0.2753700	1.4656400	0.4065200	-0.1409900	0.3877200	0.1843300	-0.1201100	0.3970700	0.1779200	-0.0019000	0.9024600	0.2449500	0.1555500	0.5943000	-0.2025400	0.1008000	0.4097900	0.1997400	-0.2385800	0.8869200	0.2761900	-0.3370300	0.6204200	-0.1944100	-0.2897600	0.8120500	-0.2371800	-0.3555200	0.7683800	-0.2385800	-0.3803100	0.5593100	-0.2402200	-0.2737000	0.7713200	-0.2312800	0.2048200	0.7432800	-0.2276100	0.2197500	0.5856000	-0.2240200	0.0635800
454	7.5500000	0.8962400	0.5446700	-0.0832700	0.9077900	0.5479300	0.0836500	1.1296100	0.3831600	0.1619100	1.4338600	0.4011500	0.0534500	0.9173900	0.5502300	-0.2495700	1.1858200	0.3549300	-0.2697400	1.4629600	0.3941400	-0.1352700	0.4094400	0.1729600	-0.1285700	0.4084700	0.1721000	-0.0082600	0.9072900	0.2424200	0.1568400	0.5991200	-0.1976500	0.0975700	0.4193300	0.1885300	-0.2409100	0.8873700	0.2825700	-0.3365000	0.6202900	-0.1944000	-0.2896700	0.8161500	-0.2339900	-0.3538300	0.7737200	-0.2390200	-0.3787800	0.5495200	-0.2434800	-0.2777400	0.7800700	-0.2281900	0.1997900	0.7427200	-0.2282200	0.2195100	0.5789800	-0.2235800	0.0657000
455	7.5666667	0.8963900	0.5389500	-0.0839200	0.9027800	0.5409100	0.0820500	1.1211000	0.3678800	0.1593100	1.4413300	0.3933100	0.0484800	0.9167500	0.5405100	-0.2502600	1.1911700	0.3585600	-0.2682000	1.4744200	0.3863300	-0.1421400	0.4058600	0.1685300	-0.1328300	0.4043300	0.1630000	-0.0165900	0.8739300	0.2292800	0.1573500	0.5939300	-0.2009700	0.1004900	0.4154900	0.1828300	-0.2424800	0.8925100	0.2834600	-0.3339300	0.6201900	-0.1923000	-0.2894100	0.8217600	-0.2335900	-0.3553800	0.7784100	-0.2388500	-0.3801000	0.5537200	-0.2383400	-0.2752100	0.7860500	-0.2275800	0.2016100	0.7434900	-0.2296300	0.2193900	0.5798300	-0.2250300	0.0659800
456	7.5833333	0.8963800	0.5346500	-0.0831200	0.8966200	0.5377800	0.0803900	1.1165300	0.3611700	0.1571800	1.4501700	0.3914600	0.0422500	0.9140900	0.5326900	-0.2511600	1.1845700	0.3512300	-0.2655800	1.4775600	0.3761300	-0.1439700	0.3723600	0.1504900	-0.1219900	0.3816200	0.1445700	-0.0152900	0.8614700	0.2343100	0.1498700	0.5947400	-0.2027800	0.1007800	0.3898200	0.1678100	-0.2333600	0.8562100	0.2782300	-0.3246700	0.6200600	-0.1922700	-0.2893100	0.8207900	-0.2341300	-0.3512600	0.7737800	-0.2391000	-0.3787700	0.5493300	-0.2396100	-0.2770200	0.7855900	-0.2279200	0.2017700	0.7483200	-0.2281500	0.2207600	0.5798500	-0.2255200	0.0660000
457	7.6000000	0.8961500	0.5292300	-0.0833000	0.9024100	0.5345000	0.0822000	1.1201300	0.3571700	0.1552300	1.4399900	0.3790100	0.0500900	0.9124800	0.5306900	-0.2479100	1.1842800	0.3461800	-0.2686700	1.4794400	0.3756600	-0.1450500	0.3875900	0.1529600	-0.1295800	0.4023400	0.1511300	-0.0231100	0.8601400	0.2294000	0.1553700	0.6086300	-0.1905500	0.0916000	0.4071900	0.1675000	-0.2402700	0.8672200	0.2777600	-0.3282800	0.6203400	-0.1902800	-0.2897900	0.8264400	-0.2337100	-0.3527900	0.7783900	-0.2388600	-0.3801000	0.5536600	-0.2383100	-0.2752100	0.7860700	-0.2275200	0.2016000	0.7536900	-0.2261000	0.2183600	0.5834200	-0.2227600	0.0624600
458	7.6166667	0.8873600	0.5235600	-0.0778500	0.8969800	0.5249900	0.0849800	1.1191900	0.3583000	0.1545600	1.4442800	0.3725400	0.0501400	0.9093700	0.5284100	-0.2445900	1.1859200	0.3464300	-0.2703200	1.4790500	0.3685900	-0.1447500	0.3679500	0.1423800	-0.1198100	0.3965900	0.1454400	-0.0165800	0.8531700	0.2339500	0.1541000	0.6090200	-0.1906800	0.0915900	0.3828600	0.1557100	-0.2310900	0.8759800	0.2817800	-0.3330100	0.6205600	-0.1924400	-0.2900600	0.8208300	-0.2341500	-0.3512500	0.7737700	-0.2391000	-0.3787700	0.5548300	-0.2396600	-0.2751600	0.7856400	-0.2278700	0.2017500	0.7484800	-0.2283500	0.2207100	0.5834600	-0.2233300	0.0625000
459	7.6333333	0.8916400	0.5247600	-0.0806100	0.8969000	0.5270300	0.0805400	1.1155800	0.3549200	0.1537700	1.4395700	0.3772900	0.0499400	0.9079100	0.5257200	-0.2456300	1.1837600	0.3442000	-0.2685500	1.4758500	0.3692200	-0.1428800	0.3699300	0.1413700	-0.1167600	0.3829000	0.1380900	-0.0131000	0.8579500	0.2348800	0.1520000	0.6088000	-0.1963800	0.0919900	0.3719500	0.1450500	-0.2254500	0.8670000	0.2799200	-0.3328500	0.6206900	-0.1924200	-0.2901500	0.8168800	-0.2355500	-0.3533100	0.7733300	-0.2389800	-0.3784300	0.5537400	-0.2402900	-0.2755800	0.7859400	-0.2298900	0.2012500	0.7435800	-0.2296700	0.2193500	0.5839300	-0.2242800	0.0627700
460	7.6500000	0.8918700	0.5221800	-0.0803900	0.9012000	0.5258200	0.0825000	1.1150200	0.3554400	0.1530700	1.4403900	0.3769300	0.0482000	0.9088700	0.5236000	-0.2448800	1.1827900	0.3430700	-0.2687000	1.4778000	0.3692000	-0.1438000	0.3693500	0.1396100	-0.1202400	0.3786000	0.1353500	-0.0153800	0.8562400	0.2347600	0.1478700	0.6090300	-0.1947900	0.0916300	0.3766600	0.1506100	-0.2286700	0.8660000	0.2768900	-0.3289700	0.6205800	-0.1924700	-0.2900600	0.8210900	-0.2377700	-0.3554500	0.7788500	-0.2389800	-0.3804500	0.5548400	-0.2396800	-0.2751400	0.7856200	-0.2301700	0.2013800	0.7529700	-0.2266100	0.2181300	0.5895600	-0.2229400	0.0646400
